# xmcd
#
# Track frame offsets:
#	150
#	17415
#	27378
#	41916
#	55356
#	71012
#	95658
#	108788
#	120039
#	134614
#	147418
#	162582
#	177306
#	192627
#	205303
#	218179
#
# Disc length: 3096 seconds
#
# Revision: 0
# Processed by: cddbd v1.5.2PL0 Copyright (c) Steve Scherf et al.
# Submitted via: audiograbber 1.83.01
#
DISCID=f30c1610
DTITLE=Echo vom Tödi und Carlo Brunner - s'Maximum
DYEAR=2004
DGENRE=Volkstümlich
TTITLE0=Carlo Brunner - Bim Purehof Peti, Schottisch (Carlo Brunner)
TTITLE1=Echo vom Tödi - Häsli-Ländler (Köbi Kamm)
TTITLE2=Carlo Brunner  - Edy git Vollgas, Schottisch (Carlo Brunner)
TTITLE3=Echo vom Tödi - Es Tänzli für e Luca, Ländler (Kurt Albert)
TTITLE4=Carlo Brunner - s'Tante Agi chunnt uf Bsuech, Fox (Carlo Brunner
TTITLE5=Tödi-Brunner - Stimmig, Potpourri
TTITLE6=Carlo Brunner - Über d'Sattelegg, Ländler (Carlo Brunner)
TTITLE7=Köbi Kamm und Martin Nauer - Spannegg-Figler, Schottisch (Köbi Kamm)
TTITLE8=Carlo Brunner - G'hacket's uf em Hörnli, Ländler (Carlo Brunner)
TTITLE9=Echo vom Tödi - Rennfieber am Klausen, Schottisch (Kurt Albert)
TTITLE10=Carlo Brunner - Guet Nacht, Fox (Carlo Brunner)
TTITLE11=Urnerbode - Kafi, Schottisch (Kurt Albert)
TTITLE12=Echo vom Tödi  - Uf dr Fisetenbahn, Ländler (Kurt Albert)
TTITLE13=Echo vom Tödi - Nüssliwasser-Schottisch (Köbi Kamm)
TTITLE14=Carlo Brunner  - Vo Wil mit Stil, Fox (Carlo Brunner)
TTITLE15=Echo vom Tödi - Mit em Fritz uf der Biketour (Köbi Kamm)
EXTD=
EXTT0=
EXTT1=
EXTT2=
EXTT3=
EXTT4=
EXTT5=1. Eskimo-Juz (Traditionell]\n2. So schön kann Musik sein\n3. Hombi-Marsc
EXTT5=h\n4. Einer der spinn
EXTT6=
EXTT7=
EXTT8=
EXTT9=
EXTT10=
EXTT11=
EXTT12=
EXTT13=
EXTT14=
EXTT15=
PLAYORDER=
